# xmcd
#
# Track frame offsets:
#	150
#	23130
#	50415
#	67835
#	109455
#	137113
#	189273
#	206388
#
# Disc length: 3115 seconds
#
# Revision: 1
# Processed by: cddbd v1.4PL0 Copyright (c) Steve Scherf et al.
# Submitted via: audiograbber 1.81.02
#
DISCID=6a0c2908
DTITLE=Poonanny - Be Still !
DYEAR=1993
DGENRE=Blues
TTITLE0=Clean Out Your Dresser
TTITLE1=Poonanny, Be Still
TTITLE2=Steppin' Out
TTITLE3=I Can Do Bad By Myself
TTITLE4=Strokin'
TTITLE5=Let's Straighten It Out
TTITLE6=Mamma Tell A Lie (aka Mom's Apple Pie)
TTITLE7=Poonanny, Be Still (Radio Version)
EXTD=Waldoxy Records 2801\n© 1993
EXTT0=
EXTT1=
EXTT2=
EXTT3=
EXTT4=
EXTT5=
EXTT6=
EXTT7=
PLAYORDER=
